<?xml version="1.0" standalone="no"?>
<!DOCTYPE svg PUBLIC "-//W3C//DTD SVG 20010904//EN"
 "http://www.w3.org/TR/2001/REC-SVG-20010904/DTD/svg10.dtd">
<svg version="1.0" xmlns="http://www.w3.org/2000/svg"
 width="291.000000pt" height="291.000000pt" viewBox="0 0 291.000000 291.000000"
 preserveAspectRatio="xMidYMid meet">
<metadata>
Created by potrace 1.14, written by Peter Selinger 2001-2017
</metadata>
<g transform="translate(0.000000,291.000000) scale(0.100000,-0.100000)"
fill="#000000" stroke="none">
<path d="M595 2902 c-16 -1 -37 -6 -45 -9 -8 -3 -19 -7 -25 -8 -5 0 -17 -4
-25 -7 -8 -4 -32 -12 -52 -18 -21 -6 -38 -16 -38 -22 0 -6 -3 -9 -6 -5 -8 7
-87 -37 -127 -71 -84 -72 -126 -115 -121 -123 3 -5 1 -9 -4 -9 -11 0 -57 -71
-54 -82 1 -5 -2 -8 -7 -8 -5 0 -15 -16 -22 -35 -7 -19 -17 -35 -21 -35 -5 0
-8 -6 -6 -12 1 -7 -3 -23 -10 -35 -7 -13 -10 -23 -6 -23 3 0 0 -7 -7 -17 -12
-13 -15 -170 -17 -907 -2 -626 0 -904 8 -936 15 -58 81 -200 117 -248 69 -91
183 -187 273 -230 135 -63 123 -62 1052 -61 780 0 849 1 914 18 130 34 208 77
310 171 72 66 116 125 158 214 79 164 75 109 75 1054 1 592 -2 842 -9 842 -6
0 -8 5 -5 11 8 13 -35 149 -47 149 -5 0 -7 4 -4 8 12 20 -136 231 -163 232 -8
0 -12 3 -8 6 9 9 -127 105 -188 133 -27 13 -58 27 -67 32 -60 30 -123 33 -953
34 -462 0 -853 -1 -870 -3z"/>
</g>
</svg>
